# xmcd
#
# Track frame offsets:
#	150
#	13465
#	26277
#	40335
#	57448
#	74037
#	98527
#	116155
#	135549
#	151673
#	166793
#	183887
#
# Disc length: 2681 seconds
# Revision: 0
# Processed by: cddbd v1.5.2PL0 Copyright (c) Steve Scherf et al.
# Submitted via: dBpowerAMP V12.0
#
DISCID=990a770c
DTITLE=Mighty Orq - Soulful City
DYEAR=2013
DGENRE=Blues
TTITLE0=Tequila Monday 
TTITLE1=I Saw The Light 
TTITLE2=Home Cookin' 
TTITLE3=Cigarettes In Heaven 
TTITLE4=Me And The Devil 
TTITLE5=Houston Blues 
TTITLE6=The Pease Principle 
TTITLE7=Death Bells 
TTITLE8=John The Revelator 
TTITLE9=Done Got Over 
TTITLE10=Paulie's Little Nightmare 
TTITLE11=Ain't Long 'Fore Day 
EXTD=
EXTT0=
EXTT1=
EXTT2=
EXTT3=
EXTT4=
EXTT5=
EXTT6=
EXTT7=
EXTT8=
EXTT9=
EXTT10=
EXTT11=
PLAYORDER=
